<?xml version="1.0" encoding="utf-8"?>
<svg version="1.1" id="Layer_1" xmlns="http://www.w3.org/2000/svg" xmlns:xlink="http://www.w3.org/1999/xlink" x="0px" y="0px"
	 viewBox="0 0 153.9 80.4" style="enable-background:new 0 0 153.9 80.4;" xml:space="preserve">
<style type="text/css">
	.st0{fill-rule:evenodd;clip-rule:evenodd;fill:#17C7A0;}
	.st1{fill:#17C7A0;}
</style>
<title>Asset 1</title>
<g>
	<path class="st0" d="M104.2,70.8c1,0.3,1.8-0.1,2.6-0.6c1.5-0.9,2.4-2.1,2.4-3.9c0-0.4-0.1-0.9-0.2-1.2c-0.4-1.2-1.2-1.8-2.8-1.8
		c-1.3,0-2.5,0.5-3.5,1.3c-2.2,1.6-7.3,8.5-1.1,12.7c1.3,0.6,2.7,1.1,4.1,1.3c0.9,0.1,1.9,0.1,2.8,0c1.7-0.1,3.2-0.7,4.8-1.2
		c0.8-0.3,3.1-1.6,5.4-3.6c3.4-2.9,4.1-3.3,6.7-6.9c1.5-2.1,2.9-4.1,4.2-6.3c0.4-0.7,0.8-1.4,1.3-2.2c-0.4,0-0.6,0-0.9,0
		c-3.8,0-7.5-0.1-11.3-0.1c-2.6,0-5.3,0.1-7.9,0.2c-2.8,0.1-5.6,0.1-8.4,0.2c-1.6,0-3.3,0.1-4.9,0.2c-2.3,0.1-4.5,0.2-6.8,0.3
		c-3.6,0.2-7.2,0.3-10.9,0.5c-1.7,0.1-3.4,0.1-5.2,0.3c-3.5,0.2-7.1,0.5-10.6,0.7c-1.6,0.1-3,0.5-4.4,1.3c-3.5,1.9-7.2,3.4-10.9,4.6
		c-2.1,0.7-4.2,1.4-6.3,2c-2.9,0.9-5.9,1.4-8.9,1.8c-2.4,0.3-4.9,0.5-7.3,0.4c-1.3,0-2.6-0.2-3.9-0.4c-0.8-0.1-1.6-0.4-2.1-1.2
		c-0.6-0.8-0.5-1.3,0.1-2.1c0.6-0.7,1.5-1.1,2.4-1.4c1.8-0.7,3.7-1.2,5.6-1.5c2-0.4,3.9-0.8,5.8-1.2c3.3-0.6,6.6-1.2,9.9-1.7
		c2-0.3,4.1-0.6,6.1-0.9c2.1-0.3,4.3-0.5,6.4-0.7c1.4-0.1,2.7-0.3,4.1-0.4c0.3,0,0.6-0.1,0.8-0.3c3-1.7,5.9-3.6,8.6-5.7
		c1.3-1,2.7-2,4-3.1c2.8-2.3,5.4-4.8,7.8-7.5c2.1-2.3,4.1-4.7,5.9-7.1c1.6-2.2,3.1-4.5,4.5-6.8c1.1-2,2.1-4.1,2.9-6.2
		c1.1-2.8,1.8-5.6,2.3-8.5c0.4-2,0.7-2.3,0.8-2.3c0.1,0,0.8,0.1,0.5,2.3c-0.3,2.7-0.9,5.4-1.8,8c-0.9,2.6-2,5.2-3.3,7.6
		c-1.1,2-2.3,3.9-3.6,5.7c-2.2,3.1-4.6,6-7.1,8.8c-2.4,2.6-4.9,5.1-7.6,7.3c-2,1.6-4.1,3.3-6.2,4.8c-1.1,0.8-2.2,1.5-3.3,2.2
		c-0.1,0.1-0.2,0.1-0.4,0.3c0.5,0.1,8.8-0.5,12.6-0.7c1.8-0.1,3.5-0.2,5.3-0.3c2.2-0.1,4.5-0.2,6.7-0.3c2.5-0.1,5-0.3,7.5-0.4
		c2-0.1,4-0.1,6-0.2c3.5-0.1,7.1-0.2,10.6-0.3c4.2-0.1,8.5-0.1,12.7-0.1c1.5,0,3,0.1,4.6,0.1c0.3,0,0.5-0.1,0.6-0.4
		c1-1.9,2-3.8,3-5.7c0.5-1.1,1-2.1,1.5-3.2c0.1-0.2,0.1-0.3,0.2-0.6c-0.3,0.1-0.5,0.2-0.8,0.3c-1.1,0.5-2,0.4-3-0.4
		c-1-0.8-1.5-1.9-1.8-3.1c-0.2-1-0.3-2-0.3-3.1c0-1.8,0-3.5,0.1-5.3c0-0.2,0-0.5,0.1-0.7c0.1-0.3,0.4-0.4,0.7-0.2
		c0.2,0.2,0.4,0.4,0.4,0.8c0.1,1.8,0.3,3.6,0.4,5.4c0.1,1.2,0.1,2.3,0.7,3.4c0.2,0.5,0.5,0.9,1,1.2c0.5,0.3,2.2,0.9,4.2-2.9
		c1-2,1.7-4.1,2.6-6.2c0.7-1.6,1.1-3.2,1.8-4.8c0.2-0.4,0.4-1.7,0.9-2c0.7-0.5,1.6-0.5,0.6,2.5c-0.5,1.6-1.1,3.2-1.7,4.7
		c-0.7,1.8-1.4,3.7-2.1,5.5c-1,2.9-2.2,5.8-3.6,8.5c-0.9,1.9-1.9,3.7-2.8,5.6c-0.1,0.2-0.1,0.3-0.2,0.5c0.2,0,0.3,0,0.4,0
		c2.1,0.1,4.2,0.2,6.2,0.4c2.5,0.2,5,0.4,7.5,0.8c1,0.1,3.6,1.1,3.3,1.2c-0.9,0.2-1.8,0.3-2.6,0.5c-0.2,0-0.5,0.1-0.7,0.1
		c-2.4-0.2-4.9-0.5-7.3-0.6c-2.4-0.2-4.9-0.3-7.3-0.5c-0.2,0-0.4,0-0.6,0c-0.4,0.6-0.8,1.2-1.1,1.8c-2.2,3.7-4.6,7.3-7.3,10.6
		c-2.2,2.7-5.6,5.6-8.4,7.1c-1.9,1-3.9,1.7-6,2.1c-2.8,0.5-5.6,0.4-8.3-0.9c-1.1-0.5-2.2-1.1-3.1-2c-1.1-1.2-1.8-2.7-1.8-4.3
		c-0.1-1.7,0.3-3.3,1-4.9c0.7-1.6,1.7-3,2.9-4.1c1.5-1.4,3.3-2.4,5.5-2.4c1.5,0,2.9,0.6,3.7,2.1c0.8,1.5,0.9,3.1,0.5,4.7
		c-0.4,1.4-1.3,2.4-2.5,3.2c-0.4,0.3-0.8,0.5-1.3,0.7c-1.3,0.6-2.7,0.6-4-0.2c-0.3-0.2-0.5-0.4-0.7-0.7c-0.8-1.3-0.4-2.9,0.8-3.8
		c0.7-0.5,1.4-0.5,2,0c0.6,0.5,1,1.7,0.6,2.4C105.1,70.4,105,70.6,104.2,70.8z M56.5,61.3c-0.2,0-0.3,0-0.5,0
		c-1.3,0.2-2.6,0.3-3.9,0.5c-3.2,0.4-6.5,0.9-9.7,1.4c-2.5,0.4-5.1,0.9-7.6,1.3c-2.6,0.5-5.2,1-7.8,1.6c-1.5,0.3-3,0.8-4.4,1.5
		c-0.2,0.1-3.3,2.8,10.9,0.8c2.8-0.3,5.5-0.8,8.2-1.6c1.7-0.5,3.4-1,5.1-1.6c2.7-0.9,5.4-1.9,8-3C55.3,62,56.5,61.3,56.5,61.3z"/>
	<path class="st0" d="M16,48.7c1-1.5,3.4-4.8,2.5-6.4c-1.7-2.3-8.1,3.9-9.6,5.8c-1.2,1.6-2.3,3.3-3.1,5.2c-0.8,2-1.4,4.1-1.7,6.3
		C4,60.3,4,61,4,61.7c0,1,0.4,1.3,1.5,1.3c0.8,0,1.6-0.3,2.4-0.6c1.4-0.6,2.7-1.5,3.8-2.5c2.1-1.7,3.9-3.7,5.6-5.8
		c0.9-1.1,4.6-6.6,6.4-9.5c1.6-2.6,3.2-5.1,4.7-7.7c0.5-0.8,0.8-1.6,1-2.5c0.8-4.1,1.9-8.2,3.4-12.1c0.9-2.4,1.9-4.7,2.9-7.1
		c1.8-4.4,3.2-5.9,3.3-6.1c0.4-0.4,0.8-0.5,1.3-0.3c0.4,0.2,0.8,1.8-0.3,4.5c-1.2,3.7-1.9,6.5-3.4,10.1c-1.5,3.7-3.2,7.4-5,11
		c-0.3,0.5-0.5,1-0.8,1.5c-0.2,0.5-0.3,1-0.4,1.5c-0.3,1.7-0.5,3.4-0.7,5c-0.1,0.6,0,1.2,0.1,1.8c0.1,0.8,0.7,1.1,1.4,0.6
		c0.6-0.4,1.3-0.8,1.8-1.4c2-1.9,3.9-3.9,5.6-6c2.6-3.2,5.1-6.4,7.6-9.6c0.3-0.3,0.5-0.7,0.7-1.1c1.1-2.2,2.1-4.5,3.2-6.7
		c1.2-2.4,2.9-6.2,4.7-9.4c5.5-9,7-9.8,7.4-10.1c0.8-0.4,3.3-2.2,1.9,2.7c-0.2,0.7-0.2,1.1-1.1,2.5c-1.1,1.8-2.3,3.6-3.4,5.5
		c-2,3.1-5.9,9.2-7.8,12c-0.9,1.3-1.8,2.5-2.7,3.8c-0.8,1-1.2,2.1-1.7,3.2c-1.9,4.7-3.7,9.5-5.6,14.2c-1.1,2.7-2.2,5.3-3.3,8
		c-1.1,2.7-1.9,4.6-3,7.4c-0.1,0.2-0.1,0.3-0.2,0.5c-0.2,0.4-0.9,0.6-1.3,0.4c-0.1-0.1-0.2-0.3-0.2-0.5c0-1.2,0.1-1.4,0.5-2.5
		c0.8-2,1.7-4,2.5-6.1c1-2.4,2-4.7,3-7.1c1.4-3.5,4.5-11.1,4.4-11.3c-0.6,0.7-1.4,1.7-1.9,2.4c-1,1.2-1.9,2.4-3,3.6
		c-1.4,1.6-2.9,3.1-4.3,4.7c-0.8,0.9-1.8,1.7-2.9,2.3c-0.7,0.4-1.4,0.5-2.2,0.4c-0.8-0.2-1.3-0.7-1.6-1.5c-0.3-1-0.4-2-0.3-3
		c0-0.4,0.3-1.8,0.3-1.8c-0.4,0.6-1,1.6-1.4,2.2c-2.2,3.5-4.3,7-6.8,10.3c-2.2,2.9-2.7,3.8-5.3,6.4c-1.3,1.3-2.8,2.5-4.4,3.5
		c-1.2,0.8-2.6,1.4-4,1.6c-0.7,0.1-1.4,0.1-2.1-0.1c-1.1-0.3-1.8-1.1-1.8-2.3c-0.1-1.1,0-2.1,0.2-3.2c0.6-3.2,1.5-6.2,3.2-9
		c1.4-2.3,2.9-4.3,4.9-6.1c1.1-1,5.4-4.1,8-3.2c0.9,0.2,1.7,0.8,1.7,1.7c0,0.6-0.1,1.3-0.2,1.9c-0.8,3-2.6,5.4-4.9,7.6
		c-1,1-2.2,1.4-3.6,1.5c-0.8,0-1.3-0.3-1.6-1.1c-0.5-2,1.4-4,3.1-3.7c0.9,0.1,1.3,0.9,0.9,2C14.2,50.5,15.6,49.3,16,48.7z M62.7,2.7
		c0.1-2.8-6.2,8-10.1,16.1C54,17.3,62.7,4.4,62.7,2.7z M38.9,12c-0.8-1.2-5.4,12.4-7.2,18.5C34.4,24.7,39.7,12.8,38.9,12z"/>
	<path class="st0" d="M124,39.8c-0.8,0.7-1.4,1.3-2.2,1.9c-0.8,0.6-1.6,1.1-2.6,1.3c-1.2,0.3-2.9-0.3-3.5-1.6
		c-0.1-0.2-0.2-0.4-0.4-0.8c-0.2,0.7-0.4,1.2-0.5,1.8c-0.7,2.4-1.5,4.8-2.2,7.2c-0.1,0.4-0.3,0.7-0.5,1c-0.1,0.2-0.4,0.4-0.6,0.5
		c-0.6,0.2-0.8-0.1-0.6-0.7c0.9-3.2,1.8-6.4,2.7-9.5c0.3-1.2,0.8-2.4,1.1-3.6c0.3-0.9,0.5-1.9,0.7-2.8c0.1-0.3,0.2-0.6,0.4-0.8
		c0.4-0.4,0.8-0.3,1.1,0.2c0.3,0.5,0.3,1,0.2,1.5c-0.1,1-0.2,2-0.2,3c0,0.5,0.1,1.1,0.3,1.6c0.3,0.8,0.9,1.2,1.7,1.3
		c0.5,0.1,1-0.2,1.4-0.5c1-0.6,1.8-1.5,2.6-2.4c0.5-0.6,0.9-1.2,1.3-1.8c0.6-0.9,0.7-1.9,1.1-2.9c0.1-0.4,0.4-0.7,0.8-0.9
		c0.3-0.1,0.5-0.1,0.7,0.2c0.4,0.4,0.6,0.9,0.3,1.4c-0.9,1.8-1.1,3.7-1.4,5.6c-0.2,1.1-0.5,2.3-0.7,3.4c-0.4,2.2-0.8,4.5-1.2,6.7
		c-0.1,0.3-0.2,0.7-0.4,1c-0.4,0.6-1.1,0.5-1.3-0.2c-0.1-0.3-0.1-0.8-0.1-1.1c0.2-1.3,0.4-2.6,0.7-3.9c0.4-1.9,0.8-3.8,1.1-5.6
		C124,40.2,124,40.1,124,39.8z"/>
	<path class="st0" d="M108.6,40.2c-0.5,0.5-0.9,0.9-1.3,1.3c-1,1-2.2,1.6-3.6,1.8c-0.9,0.1-1.7-0.1-2.5-0.5c-0.5-0.3-1-0.7-1.1-1.3
		c0-0.1-0.1-0.2-0.2-0.4c-0.3,1-0.5,1.9-0.7,2.8c-0.4,1.9-1.1,3.6-1.8,5.4c-0.1,0.3-0.2,0.5-0.3,0.8c-0.1,0.2-0.1,0.4-0.3,0.5
		c-0.3,0.5-0.9,0.4-1-0.2c-0.1-0.3-0.1-0.7,0-1.1c0-0.3,0.2-0.6,0.3-0.8c0.8-2.1,1.3-4.4,1.9-6.6c0.5-1.8,1.1-3.7,1.8-5.4
		c0.2-0.4,0.3-0.9,0.5-1.3c0.1-0.2,0.2-0.5,0.4-0.7c0.4-0.4,0.9-0.3,1.1,0.2c0.2,0.3,0.2,0.7,0,1c-0.4,1.4-0.3,2.8-0.1,4.2
		c0.1,0.7,0.5,1.2,1.3,1.4c1.1,0.3,2,0.1,2.9-0.6c0.8-0.7,1.5-1.5,2.1-2.4c0.9-1.3,1.8-2.7,2.1-4.3c0.1-0.6,0.7-0.9,1.1-0.8
		c0.5,0.1,0.9,0.9,0.6,1.4c-0.7,1.3-0.7,2.8-1.1,4.2c-0.5,2.3-1,4.7-1.5,7c-0.2,1.2-0.4,2.5-0.6,3.7c-0.1,0.5-0.3,1-0.6,1.4
		c-0.2,0.2-0.4,0.3-0.6,0.4c-0.4,0.2-0.7,0.1-0.8-0.4c-0.1-0.3-0.1-0.6-0.1-0.9c0.2-1,0.3-1.9,0.5-2.9c0.4-2.1,0.9-4.1,1.4-6.2
		C108.5,40.9,108.6,40.6,108.6,40.2z"/>
	<path class="st0" d="M60.4,40.7c-0.3,1-0.7,2.1-1.1,3.1c-0.5,1.3-0.9,2.6-1.4,3.8c-0.1,0.2-0.2,0.5-0.4,0.7
		c-0.4,0.4-0.9,0.3-1.1-0.3c-0.2-0.4-0.1-0.9,0.1-1.3c0.2-0.7,0.5-1.4,0.7-2.2c0.7-2.4,1.5-4.8,2.4-7.2c0.3-0.9,0.6-1.9,0.9-2.9
		c0.2-0.7,0.5-1.4,0.8-2.1c0.6-1.5,1.8-2.1,3.2-2.3c0.3,0,0.6,0,0.9,0c0.8,0,1.5,0.3,2,0.9c0.7,0.8,1.1,1.7,1.2,2.7
		c0.1,0.8-0.1,1.5-0.5,2.2c-0.7,1.5-1.8,2.6-3.2,3.3c-0.3,0.2-0.7,0.4-1,0.6c0.2,0.3,0.4,0.5,0.6,0.7c0.6,0.7,1.9,2.3,0.5,6.8
		c-0.2,0.4-0.3,0.8-0.5,1.3c-0.2,0.5-0.7,0.6-1,0.1c-0.2-0.2-0.3-0.5-0.3-0.8c0.1-1.2,1.2-3.5-0.2-5.9c-0.1-0.2-0.3-0.3-0.4-0.5
		C62,40.6,61.4,40.2,60.4,40.7z M61,38.8c1.1-0.2,2.1-0.6,3-1c1.1-0.5,1.9-1.3,2.5-2.4c0.5-0.9,0.4-1.7-0.1-2.5
		c-0.1-0.2-0.3-0.4-0.4-0.6c-0.4-0.7-1-0.9-1.7-0.7c-0.3,0.1-0.6,0.2-0.8,0.2c-0.3,0.1-0.5,0.3-0.6,0.6c-0.2,0.5-0.4,1.1-0.5,1.6
		c-0.4,1.3-0.7,2.6-1.1,3.9C61.2,38.2,61.1,38.4,61,38.8z"/>
	<path class="st0" d="M53.7,41.7c-0.2,0.1-3.1,0.2-4.1,0.1c-0.9-0.1-1.4,0.4-1.7,1.2c-0.7,1.6-1.5,3.1-2.2,4.7
		c-0.2,0.5-0.5,0.7-0.8,0.7c-0.3-0.1-0.5-0.5-0.4-1c0.1-0.4,0.2-0.8,0.3-1.2c0.6-1.8,1.5-3.4,2.4-5.1c1.3-2.3,2.5-4.6,3.8-6.9
		c0.7-1.2,1.5-2.5,2.6-3.4c0.3-0.3,0.6-0.5,0.9-0.6c0.8-0.4,1.5-0.1,1.7,0.8c0.3,0.8,0.3,1.7,0.3,2.6c-0.1,2.6-0.5,5.2-1.1,7.8
		c-0.3,1.4-0.6,2.8-1,4.2c-0.2,0.8-0.6,1.6-1,2.4c-0.2,0.3-0.5,0.6-0.8,0.8c-0.2,0.1-0.5,0.1-0.7,0c-0.1-0.1-0.2-0.4-0.2-0.7
		c0.1-0.4,0.2-0.7,0.4-1.1C52.8,45.4,53.7,41.8,53.7,41.7z M54.1,40.1c0.1-1,0.3-2,0.4-3c0.1-1.4,0.2-2.8,0.3-4.1
		c0-0.4-0.1-0.8-0.2-1.3c-1,0.7-4.8,6.8-5.3,8.6C50.9,40.3,52.4,40.2,54.1,40.1z"/>
	<path class="st0" d="M74.6,34.3c-0.8,2.7-1.6,5.4-2.4,8c-0.5,1.7-1.2,3.4-1.8,5c-0.1,0.4-0.3,0.7-0.6,1.1c-0.2,0.3-0.5,0.4-0.8,0.3
		c-0.3-0.1-0.4-0.4-0.4-0.7c0-0.3,0.1-0.5,0.1-0.8c1.2-3.2,2.1-6.5,3.1-9.7c0.5-1.6,1-3.2,1.6-4.8c0.1-0.3,0.2-0.5,0.4-0.7
		c0.1-0.2,0.4-0.4,0.7-0.4c0.3,0.1,0.4,0.4,0.5,0.7c0,0.1,0,0.2,0,0.3C74.9,32.6,74.8,33.8,74.6,34.3z"/>
	<path class="st0" d="M90,49.3c1.1-2.5,1.9-5.2,2.7-7.8c0.6-2,1.2-4,1.9-6c0.1-0.3,0.3-0.7,0.5-0.9c0.3-0.4,0.8-0.3,0.9,0.2
		c0.1,0.4,0.1,0.8,0,1.2c-0.3,1.4-0.7,2.8-1.1,4.2c-0.6,2-1.2,4-1.9,6c-0.5,1.5-1.1,2.9-1.6,4.3c-0.1,0.2-0.2,0.4-0.4,0.6
		c-0.3,0.3-0.6,0.5-0.9,0.4C89.8,51.4,89.4,50.8,90,49.3z"/>
	<g>
		<path class="st0" d="M4.4,44.5"/>
	</g>
	<g>
		<path class="st0" d="M4.4,65"/>
	</g>
	<g>
		<path class="st0" d="M93.9,78.8"/>
	</g>
	<g>
		<path class="st1" d="M8.1,30.6l0.1-0.2C8.1,30.4,8.1,30.4,8.1,30.6z"/>
		<path class="st1" d="M37.8,5.5L37.8,5.5C37.9,5.5,37.8,5.5,37.8,5.5z"/>
		<polygon class="st1" points="10.3,22.6 10.3,22.6 10.3,22.7 		"/>
		<path class="st1" d="M10.1,33c0.1-2.7,0.4-3.5,0.3-6.3c0-1.4,0-2.8-0.1-4.1c-0.2-0.6,0-1.7-0.2-2.5l0.1-0.3
			c-0.1-0.3-0.1-0.6,0-0.8l0,0c-0.1-0.4,0-0.8-0.1-1l0,0l0-0.5l0.1,0.1c-0.1-0.7-0.1-1.4-0.1-2L10,15.8c0.2-1.3-0.2-1.8,0.1-2.9l0,0
			C9.9,12.1,9.9,11.6,10,11c0-0.3,0.1-0.6,0.1-0.9c0-0.1,0-0.2,0-0.2c0,0,0-0.1,0-0.1l0-0.1c0-0.1,0-0.2-0.1-0.4c0,0.1,0.1,0,0.1,0
			c0-0.5,0.3-0.9,0.1-1.1C10.5,7.8,10.5,8,10.6,8c0,0,0-0.1,0-0.2c0.1-0.1,0.2-0.2,0.3-0.3l-0.1,0.1c0,0,0.2-0.1,0.4-0.2
			c0.1,0,0.2-0.1,0.3-0.1c0.1,0,0.1,0,0.1,0s-0.1-0.1-0.1-0.1C11.5,7.1,11.4,7,11.4,7c0.3,0,0.3,0,0.3,0.1c0,0.1,0.1,0.1,0.3,0
			l0-0.2c0.1,0,0.2,0,0.2,0c0.1,0,0.2,0,0.3,0.1c0.2,0,0.3,0.1,0.5,0.1c0.3,0.1,0.7,0.2,1.1,0.3c3.4,0.1,7-0.5,10.1-0.1l0.1,0.2
			c0.1,0.2,0.9-0.4,1-0.1l0.4-0.1c0.1,0,0.3,0.1,0.1,0.1c0.3,0,0.3,0,0.6-0.1l0.4,0.1c1.3,0.1,2.5-0.2,3.9-0.1
			c1.7,0.3,4.8,0,6.7-0.1c2.6-0.4,5.5,0.6,8.2,0.2c0.1,0,0.3,0,0.3-0.1l2.4,0c0,0,11.7,0.1,2.8-1.9l0.1-0.1c-1.3-0.1-2.1-0.2-3,0.1
			c-0.1-0.3-1.1,0-1.4-0.1l0,0c-0.8,0.2-1.7-0.2-2.4,0c0,0,0-0.1,0.2-0.1c-0.6,0-1.3,0.1-1.4-0.1c-1.3,0-3.2,0-4.1,0.3l0.1-0.1
			c-0.5,0.2-0.6,0-1.2,0.1c0,0-0.1,0-0.1,0c-0.5,0.2-1.6,0-2,0.1l0-0.1l-1.1,0l0.4,0c-0.1,0.3-0.8-0.2-1.6,0c-0.7,0-1.5,0.7-2.2,0.5
			C31,6.3,31.7,5.8,31.1,6c0-0.2,0.3-0.1,0.1-0.3c-0.5,0.1-0.9-0.2-1.5-0.1l0-0.1c-0.8,0.3-1.6-0.2-2.2,0.1
			c-0.9,0.1-0.6-0.4-1.5-0.1l-0.4-0.2c-0.4,0-0.3,0.2-0.7,0.1c0-0.1-0.5-0.1-0.3-0.2c-1-0.2-2,0.3-3.3-0.1c-0.3,0.2-0.9,0.1-1.1,0.3
			c0-0.1-1.3,0-0.6-0.2c0.1,0,0.2,0,0.2,0L20,5c-0.7-0.3-1.3,0.1-2.1,0.1c0.2,0,0.5,0,0.3,0.1l-0.7,0l0.1-0.1l-1-0.1l0.1,0.1
			c-0.5-0.1-0.7-0.3-1.2-0.1c-0.3,0.1,0.5,0.2-0.1,0.2c-0.7-0.1-1.6-0.2-2.5-0.3c0.1,0.2-0.1,0.2-0.4,0.2l0-0.1
			c-0.2,0-0.3,0.1-0.5,0c-0.1,0-0.2,0-0.2-0.1c-0.1-0.1-0.2-0.2-0.8,0L11.2,5c0,0-0.1,0.1-0.1,0.2C11,5.2,11,5.3,11,5.3
			c-0.5,0.3-0.6,0.3-0.8,0.3c-0.1,0-0.2,0-0.3,0.1c-0.1,0-0.1,0.1-0.2,0.2C9.6,6,9.6,6.1,9.5,6.2c0.2-0.2,0.3-0.1,0.3,0
			c0,0.1-0.1,0.3-0.3,0.4l0-0.2C9.2,6.7,9.2,6.8,9,6.9c0-0.1,0-0.1-0.1-0.1c-0.1,0-0.2,0.1-0.3,0.3c0,0,0-0.1,0-0.2
			c0-0.1,0-0.2,0-0.2S8.6,7,8.5,7.2C8.5,7.4,8.4,7.6,8.4,7.6C8.2,7.9,8,8.3,7.9,8.7C7.9,9.1,7.8,9.4,7.7,9.5c0,0,0,0,0,0.1
			c0,0,0,0.1,0,0.2c0,0.1,0,0.3,0,0.4c0,0.3,0,0.6,0.1,0.8c-0.1-0.2-0.2,0.4-0.3,0.2c0.1,0.3,0.3,1.1,0.1,1.5l0-0.1
			c-0.2,1.2,0.2,2.1,0,3.3c0.2-0.1,0.1,0.5,0.3,0.4c0.2,1.2-0.4,2.1,0.2,2.5c0,0.5-0.1,0.6-0.2,0.9l0-0.1c0.1,1,0.1,1.3,0,2
			c0.1,0.4,0.4,0.4,0.3,1.1c-0.1-0.2-0.1,0.1-0.1,0.3c0-0.2-0.1-0.2-0.1,0.1c0,0,0.1,0.1,0.1,0.2l0,0c0,0.4,0.1,0.3,0.1,0.1
			c0,0,0,0,0.1-0.1c-0.2,0.4,0,1.2-0.2,1.2c0,1.2,0.3,2.1,0.3,3.1c-0.1,0.1-0.2-0.1-0.2-0.4l0,0.7c-0.2,0-0.1-0.4-0.1-0.6
			c-0.2,0.9,0.2,1.8,0,2.8l0.1,0.2l0,0.1c0.1,0,0.1,0.2,0.2,0.4c-0.1,0.1-0.3,0-0.3,0.5c-0.1,0.4,0.1,1.1,0.1,1.6
			c0-0.3,0.1-0.2,0.1-0.1c0,0.3-0.1,0.4-0.1,0.6l-0.2,0c0.2-0.1,0.2,0.7,0.3,0.7c-0.1,0.1-0.1-0.4-0.2-0.5c0,1,0,0.5,0,1.5
			c0.1,0.5,0.2-0.1,0.3,0.2c0,0.5,0.2,0.9,0.1,1.5l0.2-0.2c0.1,0.9,0.1,1.4-0.1,2c1.3,6.6,1.7,1.4,1.7,1.4
			C10.7,37.5,10.2,36.2,10.1,33z"/>
		<path class="st1" d="M11.7,77.1C11.7,77.1,11.7,77.1,11.7,77.1c0.1,0.1,0.2,0.1,0.2,0.1C11.9,77.2,11.8,77.1,11.7,77.1z"/>
		<path class="st1" d="M75.9,77.1L75.9,77.1C75.9,77.1,75.9,77.1,75.9,77.1z"/>
		<polygon class="st1" points="21.4,79.4 21.4,79.4 21.3,79.4 		"/>
		<path class="st1" d="M9.5,76.5c0.5,1.1,1.2,1.8,1.9,2.2c0.7,0.4,3.1,0.8,4.8,0.8c1.7,0,3.5,0,5.1-0.1c0.8-0.2,2.2,0,3.1-0.2
			l0.4,0.1c0.3-0.1,0.7-0.1,1,0l0,0c0.5-0.1,1,0,1.2-0.1l0,0l0.6,0l-0.1,0.1c0.8-0.1,1.7-0.1,2.4-0.1L29.9,79
			c1.6,0.2,2.2-0.2,3.7,0.1l0,0c1.8-0.4,2.9,0.3,4.8-0.1c-0.2,0.1,0.1,0.1,0.1,0.1c0.9,0,1.8-0.1,1.8-0.4c0.6,0,0.5,0.1,0.6,0.2
			c0-0.1,0.5-0.2,1-0.2l-0.2,0.1l1.4,0l-0.3-0.3c0.8,0.1,0.2,0.3,0.9,0.3l0-0.2c1,0,1.7,0.4,2.7,0.5c4.2,0.1,8.7-0.5,12.6-0.1
			l0.2,0.2c0.1,0.2,1.1-0.4,1.2-0.1l0.5-0.1c0.1,0,0.4,0.1,0.2,0.1c0.4,0,0.4,0,0.7-0.1l0.5,0.1c1.7,0.1,3.1-0.2,4.8-0.1
			c2.1,0.3,6,0,8.3-0.1c3.2-0.4,6.9,0.6,10.2,0.2c0.1,0,0.4,0,0.4-0.1l3,0c0,0,14.5,0.1,3.5-1.9l0.1-0.1c-1.6-0.1-2.7-0.2-3.8,0.1
			c-0.2-0.3-1.3,0-1.7-0.1l0,0c-1,0.2-2.1-0.2-3,0c0,0,0.1-0.1,0.3-0.1c-0.7,0-1.7,0.1-1.7-0.1c-1.7,0-4,0-5.1,0.3l0.1-0.1
			c-0.6,0.2-0.8,0-1.5,0.1c0,0-0.1,0-0.1,0c-0.7,0.2-1.9,0-2.5,0.1l0-0.1l-1.3,0l0.5,0c-0.2,0.3-1-0.2-2,0c-0.9,0-1.8,0.7-2.8,0.5
			c-0.4,0.2,0.4-0.3-0.3-0.1c0-0.2,0.3-0.1,0.1-0.3c-0.7,0.1-1.1-0.2-1.9-0.1l0-0.1c-1.1,0.3-2-0.2-2.7,0.1
			c-1.1,0.1-0.7-0.4-1.9-0.1l-0.4-0.2c-0.5,0-0.3,0.2-0.9,0.1c0-0.1-0.7-0.1-0.4-0.2c-1.2-0.2-2.5,0.3-4.1-0.1
			C55.1,77,54.3,76.8,54,77c0-0.1-1.6,0-0.7-0.2c0.1,0,0.2,0,0.2,0l0.1-0.1c-0.9-0.3-1.7,0.1-2.6,0.1c0.3,0,0.6,0,0.4,0.1l-0.8,0
			l0.2-0.1l-1.2-0.1l0.2,0.1c-0.6-0.1-0.8-0.3-1.5-0.1c-0.3,0.1,0.6,0.2-0.1,0.2c-0.8-0.1-2-0.2-3.1-0.3c0.1,0.2-0.2,0.2-0.5,0.2
			l0-0.1c-1.1,0.2-0.4-0.3-1.5-0.2l0.1-0.1l-0.3,0.3c-1,0.3-0.5-0.3-1.6,0.1c0.4,0,0.2,0.3-0.3,0.2L41,77c-0.3,0-0.4,0.1-0.6,0.1
			c0.2-0.1,0.1-0.2-0.3-0.2l0.3-0.2l-0.8,0.2c-0.6-0.1-1.6,0-1.9-0.2c0,0-1.4-0.1-1.7,0.1c0.3-0.1-0.5-0.2-0.3-0.3
			c-0.4,0.1-1.4,0.3-1.8,0.1l0.1,0c-1.6-0.2-2.7,0.2-4,0c0.1,0.2-0.7,0.1-0.5,0.3c-1.4,0.2-2.6-0.4-3.1,0.2c-0.7,0-0.8-0.1-1.1-0.2
			l0.2,0c-1.2,0.1-1.6,0.1-2.5,0c-0.5,0.1-0.5,0.4-1.3,0.3c0.3-0.1-0.1-0.1-0.4-0.1c0.2,0,0.3-0.1-0.1-0.1c-0.1,0-0.1,0.1-0.2,0.1
			l0,0c-0.5,0-0.4,0.1-0.2,0.1c0,0,0,0,0.1,0.1c-0.5-0.2-1.5,0-1.5-0.2c-1.5,0-2.6,0.3-3.9,0.3c-0.1-0.1,0.2-0.2,0.5-0.2l-0.9,0
			c0-0.2,0.5-0.1,0.8-0.1c-0.5-0.1-1.1-0.1-1.7,0c-0.3,0-0.6,0.1-0.9,0.1c-0.2,0-0.3,0-0.5,0c-0.1,0-0.2,0-0.2,0c-0.1,0-0.1,0-0.2,0
			c0,0-0.1,0-0.1,0.1c-0.1,0-0.1,0-0.1,0l-0.1,0c0,0-0.1,0.1-0.1,0.1c-0.1,0,1.2,0,1.1,0c-0.1-0.1,0-0.2,0-0.2
			c0-0.1-0.1-0.1-0.3-0.2c-0.1-0.1-0.4-0.3-0.6-0.4c-0.2-0.2-0.5-0.4-0.6-0.6c0.1,0.2,0,0.2-0.1,0.1c-0.1-0.1-0.1-0.2-0.1-0.3
			c0-0.1,0-0.2-0.1-0.3l0.2-0.1c-0.1,0.1-0.2-0.1-0.2-0.2c-0.1-0.2-0.1-0.4-0.1-0.4C11,74.5,11,75,11.2,75c0-0.1,0-0.2,0-0.3
			c0-0.1,0-0.1,0-0.2c0-0.1,0-0.2,0-0.3c0-0.2,0-0.3,0-0.9c-0.1-0.7-0.2,0.1-0.3-0.2c0-0.6-0.2-1.2-0.1-1.8l-0.2,0.2
			c-0.1-1.1-0.1-0.7,0.1-1.4c-1.3-8.3-1.7-1.7-1.7-1.7c-0.2,1.6-0.1,1.7-0.1,3.1c0,0.7,0.1,1.3,0.2,2.1c0,0.4,0.1,0.8,0.1,1.2
			C9.1,75.3,9.2,75.9,9.5,76.5z"/>
		<path class="st1" d="M126.1,77.2l0.1,0.1C126.2,77.2,126.1,77.2,126.1,77.2z"/>
		<path class="st1" d="M148.5,70.9L148.5,70.9L148.5,70.9z"/>
		<polygon class="st1" points="130.5,79.4 130.5,79.4 130.5,79.4 		"/>
		<path class="st1" d="M124.7,79.2c1.5,0.1,1.9,0.4,3.5,0.3c0.8,0,1.6,0,2.3-0.1c0.4-0.2,1,0,1.4-0.2l0.2,0.1c0.1-0.1,0.3-0.1,0.5,0
			l0,0c0.2-0.1,0.5,0,0.6-0.1l0,0l0.3,0l0,0.1c0.4-0.1,0.8-0.1,1.1-0.1l0-0.2c0.7,0.2,1-0.2,1.6,0.1l0,0c0.8-0.4,1.3,0.3,2.2-0.1
			c-0.1,0.1,0,0.1,0,0.1c0.4,0,0.8-0.1,0.8-0.4c0.3,0,0.2,0.1,0.3,0.2c0-0.1,0.2-0.2,0.5-0.2l-0.1,0.1l0.6,0l-0.1-0.3
			c0.3,0.1,0.1,0.3,0.4,0.3l0-0.2c0.5,0,0.7,0.4,1.2,0.5c0.9,0,1.9-0.1,2.9-0.1c0.5,0,1-0.1,1.4-0.1c0.6,0,1.2-0.1,1.7-0.2l0.2,0.1
			c0.1,0.1,0.2-0.1,0.3-0.2c0.1-0.2,0.2-0.3,0.3-0.3c0,0,0-0.1,0.1-0.1c0-0.1,0.1-0.1,0.1-0.1c0.1,0,0.2-0.1,0.2,0.1
			c0.2-0.1,0.2-0.2,0.3-0.4c0,0,0.1,0,0.1,0c0.1,0,0.1,0,0.1,0c0.4-0.3,0.6-0.8,0.8-1.2c0.1-0.4,0.2-0.9,0.3-1.4
			c0-0.1,0-0.2,0.1-0.2c0-0.1,0-0.2,0-0.2c0-0.1,0-0.3,0-0.4c0-0.3,0-0.7,0-1c-0.1-0.7-0.2-1.4-0.2-1.9c-0.4-1.4,0.6-3.1,0.2-4.6
			c0,0,0-0.2-0.1-0.2l0-1.3c0,0,0.1-6.5-1.9-1.6l-0.1,0c-0.1,0.7-0.2,1.2,0.1,1.7c-0.3,0.1,0,0.6-0.1,0.8l0,0c0.2,0.4-0.2,0.9,0,1.4
			c0,0-0.1,0-0.1-0.1c0,0.3,0.1,0.7-0.1,0.8c0,0.8,0,1.8,0.3,2.3l-0.1,0c0.2,0.3,0,0.4,0.1,0.7l0,0c0.2,0.3,0,0.9,0.1,1.1l-0.1,0
			l0,0.6l0-0.2c0.3,0.1-0.2,0.5,0,0.9c0,0.4,0.7,0.8,0.5,1.2c0.2,0.2-0.3-0.2-0.1,0.1c-0.2,0-0.1-0.1-0.3-0.1
			c0.1,0.3-0.2,0.4-0.2,0.7l-0.1,0c0.1,0.2,0,0.4-0.1,0.5c-0.1,0.1-0.1,0.1-0.1,0.2c0,0.1-0.1,0.1,0,0.2c-0.1,0.2-0.2,0.2-0.3,0.2
			c-0.1,0-0.2,0-0.2,0.2c0,0-0.1,0-0.1,0c-0.1,0-0.1,0-0.1,0c-0.1,0.1,0,0.3-0.2,0.3c0-0.1-0.2,0-0.2-0.1c-0.4,0-0.6,0.5-1.2,0.2
			c-0.2,0.2-0.5,0.1-0.6,0.3c0-0.1-0.7,0-0.3-0.2c0,0,0.1,0,0.1,0l0-0.1c-0.4-0.3-0.7,0.1-1.2,0.1c0.1,0,0.3,0,0.2,0.1l-0.4,0
			l0.1-0.1l-0.6-0.1l0.1,0.1c-0.3-0.1-0.4-0.3-0.7-0.1c-0.1,0.1,0.3,0.2,0,0.2c-0.4-0.1-0.9-0.2-1.4-0.3c0,0.2-0.1,0.2-0.2,0.2
			l0-0.1c-0.5,0.2-0.2-0.3-0.7-0.2l0-0.1l-0.1,0.3c-0.4,0.3-0.2-0.3-0.7,0.1c0.2,0,0.1,0.3-0.1,0.2l0.1-0.1c-0.1,0-0.2,0.1-0.3,0.1
			c0.1-0.1,0-0.2-0.2-0.2l0.1-0.2l-0.4,0.2c-0.3-0.1-0.7,0-0.9-0.2c0,0-0.6-0.1-0.8,0.1c0.1-0.1-0.2-0.2-0.1-0.3
			c-0.2,0.1-0.6,0.3-0.8,0.1l0,0c-0.7-0.2-1.2,0.2-1.8,0c0,0.2-0.3,0.1-0.2,0.3c-0.6,0.2-1.2-0.4-1.4,0.2c-0.3,0-0.3-0.1-0.5-0.2
			l0.1,0c-0.6,0.1-0.7,0.1-1.1,0c-0.2,0.1-0.2,0.4-0.6,0.3c0.1-0.1,0-0.1-0.2-0.1c0.1,0,0.1-0.1-0.1-0.1c0,0-0.1,0.1-0.1,0.1l0,0
			c-0.2,0-0.2,0.1-0.1,0.1c0,0,0,0,0,0.1c-0.2-0.2-0.7,0-0.7-0.2c-0.7,0-1.2,0.3-1.8,0.3c-0.1-0.1,0.1-0.2,0.2-0.2l-0.4,0
			c0-0.2,0.2-0.1,0.4-0.1c-0.5-0.2-1,0.2-1.6,0l-0.1,0.1l0,0c0,0.1-0.1,0.1-0.2,0.2c-0.1-0.1,0-0.3-0.3-0.3
			c-0.2-0.1-0.6,0.1-0.9,0.1c0.2,0,0.1,0.1,0,0.1c-0.1,0-0.2-0.1-0.3-0.1l0-0.2c0.1,0.2-0.4,0.2-0.4,0.3c-0.1-0.1,0.2-0.1,0.3-0.2
			c-0.6,0-0.3,0-0.8,0c-0.3,0.1,0.1,0.2-0.1,0.3c-0.3,0-0.5,0.2-0.8,0.1l0.1,0.2c-0.5,0.1-0.8,0.1-1.1-0.1c-3.7,1.3-0.8,1.7-0.8,1.7
			C122.2,79.8,122.9,79.3,124.7,79.2z"/>
		<path class="st1" d="M148.6,37.2l0.1-0.3C148.6,36.8,148.6,36.9,148.6,37.2z"/>
		<path class="st1" d="M92.3,7.2C92.3,7.2,92.2,7.2,92.3,7.2C92.3,7.2,92.3,7.2,92.3,7.2z"/>
		<path class="st1" d="M150.8,23.9L150.8,23.9c0,0,0,0.1,0,0.1L150.8,23.9z"/>
		<path class="st1" d="M150.6,41.3c0.1-4.6,0.4-5.8,0.3-10.5c0-2.3,0-4.7-0.1-6.9c-0.2-1,0-2.9-0.2-4.1l0.1-0.5
			c-0.1-0.4-0.1-0.9,0-1.4l0,0c-0.1-0.6,0-1.4-0.1-1.7l0,0l0-0.8l0.1,0.1c-0.1-1.1-0.1-2.3-0.1-3.3l-0.2,0.1c0.1-1.1,0.1-1.8,0-2.5
			l0-0.3c0-0.1,0-0.2,0-0.4c0-0.2-0.1-0.5-0.1-0.7c-0.1-0.5-0.3-1-0.7-1.6l0.1,0c-0.6-0.6-1.2-1-1.8-1.3c-0.6-0.3-1.3-0.5-1.9-0.5
			c-1-0.1-2-0.2-3.3,0c0.3-0.1-0.1-0.1-0.1-0.1c-1.2,0-2.4,0.1-2.4,0.4c-0.9,0-0.7-0.1-0.8-0.2c0,0.1-0.7,0.2-1.4,0.2l0.3-0.1
			l-1.9,0l0.4,0.3c-1-0.1-0.3-0.3-1.2-0.3l0,0.2c-1.4,0-2.2-0.4-3.6-0.5c-5.6-0.1-11.7,0.5-16.9,0.1l-0.2-0.2
			c-0.1-0.2-1.4,0.4-1.6,0.1l-0.6,0.1c-0.2,0-0.5-0.1-0.2-0.1c-0.6,0-0.6,0-1,0.1l-0.6-0.1c-2.2-0.1-4.1,0.2-6.5,0.1
			c-2.8-0.3-8.1,0-11.2,0.1c-4.3,0.4-9.3-0.6-13.7-0.2c-0.1,0-0.5,0-0.5,0.1l-4,0c0,0-19.5-0.1-4.7,1.9l-0.1,0.1
			c2.2,0.1,3.6,0.2,5.1-0.1c0.2,0.3,1.8,0,2.3,0.1l0,0c1.3-0.2,2.8,0.2,4.1,0c-0.1,0-0.1,0.1-0.4,0.1c0.9,0,2.2-0.1,2.3,0.1
			c2.3,0,5.4,0,6.8-0.3l-0.1,0.1c0.8-0.2,1.1,0,2-0.1c0,0,0.1,0,0.1,0c0.9-0.2,2.6,0,3.3-0.1l0,0.1l1.8,0l-0.7,0
			c0.2-0.3,1.3,0.2,2.6,0c1.2,0,2.5-0.7,3.7-0.5c0.6-0.2-0.5,0.3,0.4,0.1c0,0.2-0.4,0.1-0.2,0.3c0.9-0.1,1.4,0.2,2.5,0.1l0,0.1
			c1.4-0.3,2.7,0.2,3.6-0.1c1.5-0.1,1,0.4,2.5,0.1l0.6,0.2c0.7,0,0.5-0.2,1.2-0.1c0,0.1,0.9,0.1,0.5,0.2c1.6,0.2,3.3-0.3,5.5,0.1
			c0.5-0.2,1.5-0.1,1.9-0.3c0.1,0.1,2.2,0,1,0.2c-0.1,0-0.3,0-0.3,0l-0.1,0.1c1.2,0.3,2.2-0.1,3.4-0.1c-0.4,0-0.8,0-0.5-0.1l1.1,0
			L126,7.5l1.7,0.1l-0.2-0.1c0.8,0.1,1.1,0.3,2,0.1c0.4-0.1-0.8-0.2,0.1-0.2c1.1,0.1,2.7,0.2,4.1,0.3c-0.1-0.2,0.2-0.2,0.6-0.2
			l0,0.1c1.5-0.2,0.5,0.3,2,0.2l-0.1,0.1l0.4-0.3c1.3-0.3,0.7,0.3,2.2-0.1c-0.6,0-0.3-0.3,0.4-0.2l-0.2,0.1c0.4,0,0.5-0.1,0.8-0.1
			c-0.2,0.1-0.1,0.2,0.5,0.2L140,7.6l1.1-0.2c0.9,0.1,2.2,0,2.6,0.2c0,0,1.8,0.1,2.3-0.1c-0.2,0.1,0,0.1,0.1,0.2
			c0.1,0.1,0.2,0.1,0.1,0.2c0.1-0.1,0.4-0.1,0.7,0c0.3,0.1,0.5,0.3,0.6,0.5l-0.1,0c0.2,0.2,0.3,0.5,0.5,0.8c0,0.1,0.1,0.1,0.1,0.2
			c0,0.1,0,0.1,0.1,0.2c0,0.1,0,0.1,0,0.2c0,0.1,0,0.1,0,0.2c0.1,0.9,0.1,1.7,0,2.6c0.2-0.1,0.1,0.9,0.3,0.7
			c0.2,1.9-0.4,3.5,0.2,4.2c0,0.9-0.1,1-0.2,1.5l0-0.2c0.1,1.6,0.1,2.1,0,3.4c0.1,0.6,0.4,0.7,0.3,1.8c-0.1-0.4-0.1,0.1-0.1,0.5
			c0-0.3-0.1-0.3-0.1,0.2c0,0.1,0.1,0.2,0.1,0.3l0,0c0,0.7,0.1,0.6,0.1,0.2c0,0,0,0,0.1-0.1c-0.2,0.7,0,2-0.2,2.1
			c0,2.1,0.3,3.5,0.3,5.2c-0.1,0.2-0.2-0.2-0.2-0.7l0,1.2c-0.2,0-0.1-0.7-0.1-1.1c-0.2,1.4,0.2,3,0,4.7l0.1,0.4l0,0.1
			c0.1,0,0.1,0.4,0.2,0.6c-0.1,0.2-0.3,0-0.3,0.8c-0.1,0.7,0.1,1.9,0.1,2.8c0-0.5,0.1-0.3,0.1-0.1c0,0.4-0.1,0.7-0.1,1l-0.2,0
			c0.2-0.2,0.2,1.1,0.3,1.3c-0.1,0.2-0.1-0.7-0.2-0.8c0,1.7,0,0.8,0,2.5c0.1,0.9,0.2-0.2,0.3,0.3c0,0.8,0.2,1.6,0.1,2.5l0.2-0.3
			c0.1,1.5,0.1,2.4-0.1,3.4c1.3,11.1,1.7,2.3,1.7,2.3C151.2,48.8,150.7,46.5,150.6,41.3z"/>
	</g>
</g>
</svg>
